<?xml version="1.0" standalone="no"?>
<!DOCTYPE svg PUBLIC "-//W3C//DTD SVG 20010904//EN"
 "http://www.w3.org/TR/2001/REC-SVG-20010904/DTD/svg10.dtd">
<svg version="1.0" xmlns="http://www.w3.org/2000/svg"
 width="500.000000pt" height="550.000000pt" viewBox="0 0 500.000000 550.000000"
 preserveAspectRatio="xMidYMid meet">

<g transform="translate(0.000000,550.000000) scale(0.100000,-0.100000)"
fill="#000000" stroke="none">
<path d="M2410 4644 c-72 -14 -193 -58 -250 -91 -98 -57 -235 -199 -287 -298
-113 -216 -123 -463 -27 -680 19 -44 38 -86 41 -93 4 -9 -13 -5 -43 11 -143
72 -259 96 -420 86 -477 -29 -805 -483 -683 -944 6 -22 29 -78 52 -125 34 -71
57 -101 136 -180 155 -153 285 -206 491 -197 138 6 207 27 313 96 319 210 384
618 139 882 -110 119 -237 178 -383 179 -136 0 -235 -39 -334 -132 -100 -93
-146 -198 -147 -332 0 -168 85 -306 231 -374 47 -23 70 -27 146 -27 82 0 97 3
157 33 196 96 251 340 108 479 -48 47 -90 63 -160 63 -98 0 -166 -48 -190
-136 -28 -100 42 -178 125 -138 26 12 38 26 47 55 13 46 21 48 53 13 29 -31
31 -57 7 -101 -28 -52 -68 -76 -132 -81 -112 -8 -192 64 -207 187 -13 110 62
232 172 283 69 31 171 31 239 0 255 -116 307 -427 106 -631 -185 -189 -460
-184 -652 10 -165 167 -203 388 -103 604 75 163 209 270 402 320 184 48 398
-21 559 -180 69 -67 89 -95 127 -175 50 -107 63 -151 73 -261 14 -156 -49
-339 -164 -474 -105 -125 -287 -249 -474 -324 -32 -13 -58 -26 -58 -30 0 -3
79 -85 175 -181 l175 -174 11 34 c18 53 119 248 161 310 115 172 279 298 443
340 269 69 563 -38 715 -260 141 -207 158 -420 50 -629 -178 -343 -623 -410
-881 -135 -64 69 -96 129 -120 224 -18 71 -20 93 -11 144 30 180 138 316 300
376 79 30 194 25 272 -11 172 -81 259 -266 200 -423 -26 -69 -89 -138 -153
-166 -52 -24 -153 -26 -205 -5 -104 44 -151 160 -102 256 36 69 116 100 168
63 31 -22 29 -54 -3 -54 -40 0 -75 -42 -75 -88 0 -56 25 -83 82 -89 25 -3 62
0 81 6 67 22 127 113 127 191 0 93 -85 196 -185 226 -144 41 -294 -34 -367
-185 -28 -58 -32 -76 -32 -146 1 -114 29 -182 108 -261 68 -67 125 -99 205
-114 113 -21 219 -4 314 51 245 143 316 452 158 696 -79 122 -218 219 -358
248 -127 27 -246 11 -373 -51 -92 -46 -220 -168 -269 -259 -130 -241 -99 -519
82 -734 87 -103 187 -169 337 -222 56 -20 84 -23 210 -23 127 0 153 3 210 23
220 79 361 201 455 396 108 222 108 448 0 682 -31 67 -34 88 -10 64 16 -15
148 -69 212 -86 77 -21 259 -21 355 1 40 9 114 36 163 59 195 94 330 252 397
465 19 63 23 97 23 205 0 116 -3 139 -29 218 -68 209 -219 370 -420 448 -68
27 -98 33 -190 37 -123 5 -189 -6 -283 -48 -178 -80 -312 -232 -358 -406 -22
-81 -22 -225 0 -300 52 -181 203 -335 382 -389 60 -19 192 -19 259 -1 167 44
308 191 343 354 31 149 -11 296 -115 397 -174 170 -468 122 -571 -94 -84 -175
29 -385 207 -385 85 0 163 49 189 117 34 89 -2 167 -77 167 -47 0 -73 -18 -87
-61 -14 -41 -25 -45 -53 -19 -67 62 21 190 130 190 106 0 176 -63 197 -176 10
-52 -6 -137 -32 -178 -51 -77 -139 -131 -229 -142 -146 -17 -310 100 -359 256
-47 151 -1 303 124 416 187 168 437 161 624 -18 97 -94 147 -191 164 -318 41
-325 -237 -630 -576 -630 -218 0 -460 153 -557 352 -61 125 -72 174 -73 318 0
124 2 141 29 213 76 209 251 378 521 506 55 26 111 52 123 57 22 9 14 20 -152
187 l-177 178 -25 -58 c-186 -430 -440 -647 -759 -646 -323 1 -598 226 -661
541 -16 77 -16 91 -1 179 38 232 202 423 412 478 95 24 227 21 306 -8 179 -64
300 -191 344 -358 53 -198 -53 -421 -245 -513 -59 -28 -74 -31 -165 -31 -90 0
-105 3 -155 28 -127 66 -214 196 -213 317 1 78 26 141 80 201 97 107 264 121
362 28 28 -27 60 -95 61 -130 0 -39 -46 -122 -79 -142 -41 -24 -95 -22 -121 5
-25 27 -21 42 12 46 71 8 99 111 43 159 -25 22 -36 25 -86 21 -178 -13 -232
-254 -84 -373 58 -46 101 -60 180 -60 121 1 220 66 277 183 70 141 44 304 -66
416 -185 189 -499 159 -666 -63 -60 -79 -89 -160 -97 -262 -20 -265 193 -518
473 -561 223 -35 461 81 588 285 122 196 134 416 34 621 -82 168 -237 301
-423 363 -65 21 -102 27 -195 29 -63 1 -126 0 -140 -2z"/>
</g>
</svg>
